<svg class="typst-doc" viewBox="0 0 330.26329658792645 260.50991338582674" width="330.26329658792645pt" height="260.50991338582674pt" xmlns="http://www.w3.org/2000/svg" xmlns:xlink="http://www.w3.org/1999/xlink" xmlns:h5="http://www.w3.org/1999/xhtml">
    <path class="typst-shape" fill="#ffffff" fill-rule="nonzero" d="M 0 0v 260.50992 h 330.2633 v -260.50992 Z "/>
    <g>
        <g class="typst-group" transform="matrix(1 0 0 1 10 10)">
            <g>
                <path class="typst-shape" fill="none" stroke="#000000" stroke-width="1.1" stroke-linecap="butt" stroke-linejoin="miter" stroke-miterlimit="4" transform="matrix(1 0 0 1 26.397895013123357 13.738259842519684)" d="M 0 0m 0 226.77165 v -226.77165 "/>
                <path class="typst-shape" fill="none" stroke="#000000" stroke-width="1.1" stroke-linecap="butt" stroke-linejoin="miter" stroke-miterlimit="4" transform="matrix(1 0 0 1 3.720729658792649 127.12408661417322)" d="M 0 0h 226.77165 "/>
                <path class="typst-shape" fill="none" stroke="#2563eb" stroke-width="1.5" stroke-linecap="butt" stroke-linejoin="miter" stroke-miterlimit="4" transform="matrix(1 0 0 1 26.397895013123357 42.084716535433074)" d="M 0 0m 0 85.03937 l 85.03937 -85.03937 l 85.03937 85.03937 l -85.03937 85.03937 l -85.03937 -85.03937 Z "/>
                <path class="typst-shape" fill="none" transform="matrix(1 0 0 1 234.43299737532809 123.30708661417322)" d="M 0 0h 6.292 v 7.634 h -6.292 v -7.634 Z "/>
                <g class="typst-group">
                    <g>
                        <g class="typst-group" transform="matrix(1 0 0 1 234.43299734383206 123.30708655118111)">
                            <g>
                                <g class="typst-text" transform="matrix(1 0 0 -1 0 7.513000000000001)">
                                    <use xlink:href="#gACB755223510ADDDA9C4096A39CB178D" x="0" y="0" fill="#000000" fill-rule="nonzero"/>
                                </g>
                            </g>
                        </g>
                    </g>
                </g>
                <path class="typst-shape" fill="none" transform="matrix(1 0 0 1 23.669895013123362 0)" d="M 0 0h 5.456 v 7.634 h -5.456 v -7.634 Z "/>
                <g class="typst-group">
                    <g>
                        <g class="typst-group" transform="matrix(1 0 0 1 23.66989495013123 -0.00000006299211687349264)">
                            <g>
                                <g class="typst-text" transform="matrix(1 0 0 -1 0 7.513000000000001)">
                                    <use xlink:href="#gA578AD1E900DA93DF7677C77C9F7CD95" x="0" y="0" fill="#000000" fill-rule="nonzero"/>
                                </g>
                            </g>
                        </g>
                    </g>
                </g>
                <path class="typst-shape" fill="none" transform="matrix(1 0 0 1 0 136.1768149606299)" d="M 0 0h 24.449333 v 10.241 h -24.449333 v -10.241 Z "/>
                <g class="typst-group">
                    <g>
                        <g class="typst-group" transform="matrix(1 0 0 1 -0.000000026246720884182294 136.1768148503937)">
                            <g>
                                <g class="typst-text" transform="matrix(1 0 0 -1 0 7.513000000000001)">
                                    <use xlink:href="#g3A5EE659F72F7A7ADC789E3A8C0C0EE2" x="0" y="0" fill="#000000" fill-rule="nonzero"/>
                                </g>
                                <g class="typst-text" transform="matrix(1 0 0 -1 4.279 7.513000000000001)">
                                    <use xlink:href="#gE02F062E146FBA40D5F1EDC4B5AB8CDF" x="0" y="0" fill="#000000" fill-rule="nonzero"/>
                                </g>
                                <g class="typst-text" transform="matrix(1 0 0 -1 9.779 7.513000000000001)">
                                    <use xlink:href="#g773758A57DD130C4FC4C499D24E38763" x="0" y="0" fill="#000000" fill-rule="nonzero"/>
                                </g>
                                <g class="typst-text" transform="matrix(1 0 0 -1 14.670333333333332 7.513000000000001)">
                                    <use xlink:href="#gE02F062E146FBA40D5F1EDC4B5AB8CDF" x="0" y="0" fill="#000000" fill-rule="nonzero"/>
                                </g>
                                <g class="typst-text" transform="matrix(1 0 0 -1 20.170333333333332 7.513000000000001)">
                                    <use xlink:href="#g94B46C1FC54AFCBE17C2B821980DB702" x="0" y="0" fill="#000000" fill-rule="nonzero"/>
                                </g>
                            </g>
                        </g>
                    </g>
                </g>
                <path class="typst-shape" fill="none" transform="matrix(1 0 0 1 199.84251968503938 114.06657874015748)" d="M 0 0h 24.449333 v 10.241 h -24.449333 v -10.241 Z "/>
                <g class="typst-group">
                    <g>
                        <g class="typst-group" transform="matrix(1 0 0 1 199.84251965879264 114.06657862992125)">
                            <g>
                                <g class="typst-text" transform="matrix(1 0 0 -1 0 7.513000000000001)">
                                    <use xlink:href="#g3A5EE659F72F7A7ADC789E3A8C0C0EE2" x="0" y="0" fill="#000000" fill-rule="nonzero"/>
                                </g>
                                <g class="typst-text" transform="matrix(1 0 0 -1 4.279 7.513000000000001)">
                                    <use xlink:href="#gF475BC26362428EA66BD81F6B46D87A9" x="0" y="0" fill="#000000" fill-rule="nonzero"/>
                                </g>
                                <g class="typst-text" transform="matrix(1 0 0 -1 9.779 7.513000000000001)">
                                    <use xlink:href="#g773758A57DD130C4FC4C499D24E38763" x="0" y="0" fill="#000000" fill-rule="nonzero"/>
                                </g>
                                <g class="typst-text" transform="matrix(1 0 0 -1 14.670333333333332 7.513000000000001)">
                                    <use xlink:href="#gE02F062E146FBA40D5F1EDC4B5AB8CDF" x="0" y="0" fill="#000000" fill-rule="nonzero"/>
                                </g>
                                <g class="typst-text" transform="matrix(1 0 0 -1 20.170333333333332 7.513000000000001)">
                                    <use xlink:href="#g94B46C1FC54AFCBE17C2B821980DB702" x="0" y="0" fill="#000000" fill-rule="nonzero"/>
                                </g>
                            </g>
                        </g>
                    </g>
                </g>
                <path class="typst-shape" fill="none" transform="matrix(1 0 0 1 97.37229842519686 28.48270866141732)" d="M 0 0h 28.129932 v 11.33 h -28.129932 v -11.33 Z "/>
                <g class="typst-group">
                    <g>
                        <g class="typst-group" transform="matrix(1 0 0 1 97.3722983832021 28.48270855118111)">
                            <g>
                                <g class="typst-group">
                                    <g>
                                        <g class="typst-text" transform="matrix(1 0 0 -1 0 7.513000000000001)">
                                            <use xlink:href="#gB56977B8E514832554387B9D3A881F8D" x="0" y="0" fill="#000000" fill-rule="nonzero"/>
                                        </g>
                                        <g class="typst-text" transform="matrix(1 0 0 -1 6.138000000000001 3.1790000000000003)">
                                            <use xlink:href="#gBFDA36F678F5ECDCD006E5B314ABCC57" x="0" y="0" fill="#000000" fill-rule="nonzero"/>
                                        </g>
                                        <g class="typst-text" transform="matrix(1 0 0 -1 6.138000000000001 11.308)">
                                            <use xlink:href="#g15F53FE9723A43E35F3A8E323C9F7CDE" x="0" y="0" fill="#000000" fill-rule="nonzero"/>
                                        </g>
                                        <path class="typst-shape" fill="none" stroke="#000000" stroke-width="0.528" stroke-linecap="butt" stroke-linejoin="miter" stroke-miterlimit="4" transform="matrix(1 0 0 1 6.138000000000001 4.763000000000001)" d="M 0 0h 4.3813 "/>
                                        <g class="typst-text" transform="matrix(1 0 0 -1 11.6193 7.513000000000001)">
                                            <use xlink:href="#g773758A57DD130C4FC4C499D24E38763" x="0" y="0" fill="#000000" fill-rule="nonzero"/>
                                        </g>
                                        <g class="typst-text" transform="matrix(1 0 0 -1 17.610633333333336 3.1790000000000003)">
                                            <use xlink:href="#gBFDA36F678F5ECDCD006E5B314ABCC57" x="0" y="0" fill="#000000" fill-rule="nonzero"/>
                                        </g>
                                        <g class="typst-text" transform="matrix(1 0 0 -1 17.610633333333336 11.308)">
                                            <use xlink:href="#g15F53FE9723A43E35F3A8E323C9F7CDE" x="0" y="0" fill="#000000" fill-rule="nonzero"/>
                                        </g>
                                        <path class="typst-shape" fill="none" stroke="#000000" stroke-width="0.528" stroke-linecap="butt" stroke-linejoin="miter" stroke-miterlimit="4" transform="matrix(1 0 0 1 17.610633333333336 4.763000000000001)" d="M 0 0h 4.3813 "/>
                                        <g class="typst-text" transform="matrix(1 0 0 -1 23.091933333333333 7.513000000000001)">
                                            <use xlink:href="#g5EA0335BB1FC13D8C881BBB4FD206558" x="0" y="0" fill="#000000" fill-rule="nonzero"/>
                                        </g>
                                    </g>
                                </g>
                            </g>
                        </g>
                    </g>
                </g>
                <path class="typst-shape" fill="none" transform="matrix(1 0 0 1 93.09329842519686 217.27011023622046)" d="M 0 0h 36.687935 v 11.33 h -36.687935 v -11.33 Z "/>
                <g class="typst-group">
                    <g>
                        <g class="typst-group" transform="matrix(1 0 0 1 93.09329841469817 217.27011012598425)">
                            <g>
                                <g class="typst-group">
                                    <g>
                                        <g class="typst-text" transform="matrix(1 0 0 -1 0 7.513000000000001)">
                                            <use xlink:href="#gB56977B8E514832554387B9D3A881F8D" x="0" y="0" fill="#000000" fill-rule="nonzero"/>
                                        </g>
                                        <g class="typst-text" transform="matrix(1 0 0 -1 6.138000000000001 3.1790000000000003)">
                                            <use xlink:href="#gBFDA36F678F5ECDCD006E5B314ABCC57" x="0" y="0" fill="#000000" fill-rule="nonzero"/>
                                        </g>
                                        <g class="typst-text" transform="matrix(1 0 0 -1 6.138000000000001 11.308)">
                                            <use xlink:href="#g15F53FE9723A43E35F3A8E323C9F7CDE" x="0" y="0" fill="#000000" fill-rule="nonzero"/>
                                        </g>
                                        <path class="typst-shape" fill="none" stroke="#000000" stroke-width="0.528" stroke-linecap="butt" stroke-linejoin="miter" stroke-miterlimit="4" transform="matrix(1 0 0 1 6.138000000000001 4.763000000000001)" d="M 0 0h 4.3813 "/>
                                        <g class="typst-text" transform="matrix(1 0 0 -1 11.6193 7.513000000000001)">
                                            <use xlink:href="#g773758A57DD130C4FC4C499D24E38763" x="0" y="0" fill="#000000" fill-rule="nonzero"/>
                                        </g>
                                        <g class="typst-text" transform="matrix(1 0 0 -1 16.510633333333335 7.513000000000001)">
                                            <use xlink:href="#g4A52173026735FA7E7F04E6F5D055AF3" x="0" y="0" fill="#000000" fill-rule="nonzero"/>
                                        </g>
                                        <g class="typst-text" transform="matrix(1 0 0 -1 26.168633333333336 3.1790000000000003)">
                                            <use xlink:href="#gBFDA36F678F5ECDCD006E5B314ABCC57" x="0" y="0" fill="#000000" fill-rule="nonzero"/>
                                        </g>
                                        <g class="typst-text" transform="matrix(1 0 0 -1 26.168633333333336 11.308)">
                                            <use xlink:href="#g15F53FE9723A43E35F3A8E323C9F7CDE" x="0" y="0" fill="#000000" fill-rule="nonzero"/>
                                        </g>
                                        <path class="typst-shape" fill="none" stroke="#000000" stroke-width="0.528" stroke-linecap="butt" stroke-linejoin="miter" stroke-miterlimit="4" transform="matrix(1 0 0 1 26.168633333333336 4.763000000000001)" d="M 0 0h 4.3813 "/>
                                        <g class="typst-text" transform="matrix(1 0 0 -1 31.649933333333333 7.513000000000001)">
                                            <use xlink:href="#g5EA0335BB1FC13D8C881BBB4FD206558" x="0" y="0" fill="#000000" fill-rule="nonzero"/>
                                        </g>
                                    </g>
                                </g>
                            </g>
                        </g>
                    </g>
                </g>
                <path class="typst-shape" fill="none" transform="matrix(1 0 0 1 264.1072965879265 90.70866141732283)" d="M 0 0h 46.156 v 7.634 h -46.156 v -7.634 Z "/>
                <g class="typst-group">
                    <g>
                        <g class="typst-group" transform="matrix(1 0 0 1 264.10729646194227 90.70866135433072)">
                            <g>
                                <g class="typst-text" transform="matrix(1 0 0 -1 0 7.513000000000001)">
                                    <use xlink:href="#gDC0FFCC189DD288E475665D8B3B63DE4" x="0" y="0" fill="#000000" fill-rule="nonzero"/>
                                </g>
                                <g class="typst-text" transform="matrix(1 0 0 -1 9.347555555555555 7.513000000000001)">
                                    <use xlink:href="#gF099AF9A1B1D276B96FC12E616EA7407" x="0" y="0" fill="#000000" fill-rule="nonzero"/>
                                </g>
                                <g class="typst-text" transform="matrix(1 0 0 -1 20.961111111111112 7.513000000000001)">
                                    <use xlink:href="#gACB755223510ADDDA9C4096A39CB178D" x="0" y="0" fill="#000000" fill-rule="nonzero"/>
                                </g>
                                <g class="typst-text" transform="matrix(1 0 0 -1 29.697555555555553 7.513000000000001)">
                                    <use xlink:href="#g4A52173026735FA7E7F04E6F5D055AF3" x="0" y="0" fill="#000000" fill-rule="nonzero"/>
                                </g>
                                <g class="typst-text" transform="matrix(1 0 0 -1 40.699999999999996 7.513000000000001)">
                                    <use xlink:href="#gA578AD1E900DA93DF7677C77C9F7CD95" x="0" y="0" fill="#000000" fill-rule="nonzero"/>
                                </g>
                            </g>
                        </g>
                    </g>
                </g>
                <path class="typst-shape" fill="none" transform="matrix(1 0 0 1 264.4042965879265 116.57079527559054)" d="M 0 0h 45.562 v 9.768 h -45.562 v -9.768 Z "/>
                <g class="typst-group">
                    <g>
                        <g class="typst-group" transform="matrix(1 0 0 1 264.4042964619423 116.57079518110235)">
                            <g>
                                <g class="typst-text" transform="matrix(1 0 0 -1 0 7.513000000000001)">
                                    <use xlink:href="#g188D2B54D9E91AF385779383AA474A93" x="0" y="0" fill="#000000" fill-rule="nonzero"/>
                                </g>
                                <g class="typst-text" transform="matrix(1 0 0 -1 8.753555555555556 7.513000000000001)">
                                    <use xlink:href="#gF099AF9A1B1D276B96FC12E616EA7407" x="0" y="0" fill="#000000" fill-rule="nonzero"/>
                                </g>
                                <g class="typst-text" transform="matrix(1 0 0 -1 20.36711111111111 7.513000000000001)">
                                    <use xlink:href="#gACB755223510ADDDA9C4096A39CB178D" x="0" y="0" fill="#000000" fill-rule="nonzero"/>
                                </g>
                                <g class="typst-text" transform="matrix(1 0 0 -1 29.103555555555552 7.513000000000001)">
                                    <use xlink:href="#gB137087D3CF9A3E3730DD9887591EE87" x="0" y="0" fill="#000000" fill-rule="nonzero"/>
                                </g>
                                <g class="typst-text" transform="matrix(1 0 0 -1 40.105999999999995 7.513000000000001)">
                                    <use xlink:href="#gA578AD1E900DA93DF7677C77C9F7CD95" x="0" y="0" fill="#000000" fill-rule="nonzero"/>
                                </g>
                            </g>
                        </g>
                    </g>
                </g>
            </g>
        </g>
    </g>
    <defs id="glyph">
        <symbol id="gACB755223510ADDDA9C4096A39CB178D" overflow="visible">
            <path d="M 0 0m 5.973 1.584 c 0 0.09899998 -0.055000305 0.15400004 -0.17600012 0.15400004 c -0.09899998 0 -0.1539998 -0.07700002 -0.1869998 -0.23100007 c -0.055000305 -0.20899999 -0.11000013 -0.41799998 -0.18700027 -0.627 c -0.14300013 -0.451 -0.34100008 -0.682 -0.5829997 -0.682 c -0.19799995 0 -0.2970004 0.154 -0.2970004 0.46199995 c 0 0.18700004 0.07700014 0.561 0.22000027 1.1110001 l 0.29699993 1.166 c 0.09899998 0.3959999 0.1869998 0.671 0.25300026 1.0119998 l 0.065999985 0.29699993 c 0.021999836 0.07700014 0.032999992 0.13199997 0.032999992 0.16499996 c 0 0.22000027 -0.12100029 0.3300004 -0.3630004 0.3300004 c -0.24199963 0 -0.3959999 -0.13199997 -0.4619999 -0.40700006 l -0.8139999 -3.256 c -0.010999918 -0.032999992 -0.055000067 -0.109999955 -0.14300013 -0.24199998 c -0.17599988 -0.28599995 -0.6049998 -0.63799995 -1.0449998 -0.63799995 c -0.41799998 0 -0.6270001 0.286 -0.6270001 0.84699994 c 0 0.4510001 0.19799995 1.1769999 0.58299994 2.1890001 c 0.12100005 0.32999992 0.18700004 0.5610001 0.18700004 0.6930001 c 0 0.5499997 -0.385 0.93499994 -0.93499994 0.93499994 c -0.495 0 -0.88 -0.2750001 -1.155 -0.8249998 c -0.20900002 -0.42900014 -0.319 -0.7260003 -0.319 -0.8800001 c 0 -0.09899998 0.055000007 -0.15400004 0.176 -0.15400004 c 0.143 0 0.16499996 0.065999985 0.20899999 0.22000003 c 0.25300002 0.8800001 0.605 1.3199997 1.056 1.3199997 c 0.15400004 0 0.23099995 -0.10999966 0.23099995 -0.31899977 c 0 -0.16499996 -0.065999985 -0.3959999 -0.18699992 -0.7149999 c -0.41799998 -1.1110001 -0.627 -1.881 -0.627 -2.288 c 0 -0.84699994 0.528 -1.342 1.375 -1.342 c 0.47300005 0 0.90199995 0.22 1.2649999 0.671 c 0.15400004 -0.451 0.4840002 -0.671 0.99000025 -0.671 c 0.7589998 0 0.9899998 0.891 1.1659999 1.705 Z "/>
        </symbol>
        <symbol id="gA578AD1E900DA93DF7677C77C9F7CD95" overflow="visible">
            <path d="M 0 0m 4.059 4.301 c 0 -0.0880003 0.09899998 -0.23099995 0.2750001 -0.4510002 c 0.17599964 -0.22000003 0.26399994 -0.4729998 0.26399994 -0.7589998 c 0 -0.319 -0.15400028 -0.85800004 -0.47300005 -1.6170001 c -0.23099995 -0.528 -0.75900006 -1.276 -1.408 -1.276 c -0.50600004 0 -0.75900006 0.297 -0.75900006 0.902 c 0 0.42900002 0.20900011 1.1880001 0.6270001 2.277 c 0.08800006 0.23099995 0.13199997 0.41799998 0.13199997 0.54999995 c 0 0.5499997 -0.37400007 0.93499994 -0.924 0.93499994 c -0.48399997 0 -0.86899996 -0.2750001 -1.144 -0.8249998 c -0.22 -0.4510002 -0.32999998 -0.7370002 -0.32999998 -0.8800001 c 0 -0.09899998 0.055000007 -0.15400004 0.176 -0.15400004 c 0.143 0 0.16499996 0.065999985 0.20899999 0.22000003 c 0.25300002 0.8800001 0.605 1.3199997 1.056 1.3199997 c 0.143 0 0.22000003 -0.09899998 0.22000003 -0.3079996 c 0 -0.17600012 -0.055000067 -0.41800022 -0.176 -0.7370002 c -0.40700006 -1.089 -0.61600006 -1.826 -0.61600006 -2.2329998 c 0 -0.561 0.18700004 -0.946 0.561 -1.155 c 0.29700005 -0.154 0.60500014 -0.231 0.92400014 -0.231 c 0.97899985 0 1.661 1.056 1.9469998 1.903 c 0.35200024 1.034 0.5279999 1.7930001 0.5279999 2.277 c 0 0.53900003 -0.17599964 0.803 -0.5169997 0.803 c -0.2750001 0 -0.572 -0.28599977 -0.572 -0.5609999 Z "/>
        </symbol>
        <symbol id="g3A5EE659F72F7A7ADC789E3A8C0C0EE2" overflow="visible">
            <path d="M 0 0m 3.498 -2.728 c 0.09899998 0 0.15400004 0.05499983 0.15400004 0.15400004 c 0 0.032999992 -0.022000074 0.0769999 -0.055000067 0.12099981 c -0.5719998 0.44000006 -1.0339999 1.1660001 -1.375 2.167 c -0.29699993 0.869 -0.45099986 1.727 -0.45099986 2.5740001 v 0.9239998 c 0 0.8470001 0.15399992 1.7049999 0.45099986 2.574 c 0.34100008 1.0010004 0.8030002 1.7270002 1.375 2.1670003 c 0.032999992 0.032999992 0.055000067 0.076999664 0.055000067 0.12100029 c 0 0.09899998 -0.055000067 0.15399933 -0.15400004 0.15399933 c -0.010999918 0 -0.04399991 -0.01099968 -0.0769999 -0.032999992 c -0.6600001 -0.50599957 -1.21 -1.2539997 -1.661 -2.2549996 c -0.42900002 -0.95700026 -0.64900005 -1.8590002 -0.64900005 -2.7280002 v -0.9239998 c 0 -0.8690001 0.22000003 -1.7710001 0.64900005 -2.7280002 c 0.45099998 -1.0009999 1.0009999 -1.7489998 1.661 -2.2549999 c 0.032999992 -0.022000074 0.065999985 -0.032999992 0.0769999 -0.032999992 Z "/>
        </symbol>
        <symbol id="gE02F062E146FBA40D5F1EDC4B5AB8CDF" overflow="visible">
            <path d="M 0 0m 2.739 -0.242 c 1.5509999 0 2.3209999 1.254 2.3209999 3.762 c 0 1.6830001 -0.35199976 2.8049998 -1.0450001 3.355 c -0.385 0.29699993 -0.8139999 0.45099974 -1.2649999 0.45099974 c -1.551 0 -2.321 -1.2649999 -2.321 -3.8059998 c 0 -2.024 0.53900003 -3.762 2.3100002 -3.762 Z m 1.2319999 6.006 c 0.0769999 -0.38499975 0.109999895 -1.0889997 0.109999895 -2.112 c 0 -1.0120001 -0.043999672 -1.76 -0.12099981 -2.244 c -0.14300013 -0.88 -0.54999995 -1.3199999 -1.221 -1.3199999 c -0.25300002 0 -0.50600004 0.09900001 -0.737 0.286 c -0.29700005 0.25299996 -0.47300005 0.77000004 -0.5500001 1.562 c -0.032999992 0.27499998 -0.04400003 0.847 -0.04400003 1.716 c 0 0.95700026 0.032999992 1.6279998 0.08800006 1.9910002 c 0.09899998 0.605 0.29699993 0.9899998 0.605 1.1549997 c 0.24199986 0.13199997 0.45099998 0.19799995 0.638 0.19799995 c 0.7149999 0 1.1109998 -0.5829997 1.2319999 -1.2319999 Z "/>
        </symbol>
        <symbol id="g773758A57DD130C4FC4C499D24E38763" overflow="visible">
            <path d="M 0 0m 1.529 1.166 c -0.352 0 -0.58300006 -0.264 -0.58300006 -0.616 c 0 -0.33 0.25300002 -0.605 0.58300006 -0.605 c 0.15399992 0 0.2859999 0.044 0.385 0.143 l 0.010999918 -0.088 c 0 -0.693 -0.23099995 -1.287 -0.69299996 -1.76 c -0.07700002 -0.08800006 -0.12100005 -0.15400004 -0.12100005 -0.19799995 c 0 -0.11000013 0.04400003 -0.16499996 0.143 -0.16499996 c 0.0990001 0 0.23100007 0.13199997 0.41799998 0.38499987 c 0.37400007 0.528 0.5610001 1.1110001 0.5610001 1.738 c 0 0.583 -0.19799995 1.166 -0.704 1.166 Z "/>
        </symbol>
        <symbol id="g94B46C1FC54AFCBE17C2B821980DB702" overflow="visible">
            <path d="M 0 0m 0.858 -2.695 c 0.66 0.50600004 1.21 1.254 1.661 2.2549999 c 0.4289999 0.957 0.6489999 1.859 0.6489999 2.7280002 v 0.9239998 c 0 0.86899996 -0.22000003 1.7709999 -0.6489999 2.7280002 c -0.45099998 1.0009999 -1.001 1.7490001 -1.661 2.2549996 c -0.032999992 0.022000313 -0.065999985 0.032999992 -0.07699996 0.032999992 c -0.09900004 0 -0.15400004 -0.05499935 -0.15400004 -0.15399933 c 0 -0.044000626 0.022000015 -0.0880003 0.055000007 -0.12100029 c 0.57199997 -0.44000006 1.0339999 -1.1659999 1.375 -2.1670003 c 0.29700017 -0.86899996 0.45099998 -1.7269998 0.45099998 -2.574 v -0.9239998 c 0 -0.8470001 -0.1539998 -1.7050002 -0.45099998 -2.5740001 c -0.34099996 -1.0009999 -0.803 -1.727 -1.375 -2.167 c -0.032999992 -0.04399991 -0.055000007 -0.08799982 -0.055000007 -0.12099981 c 0 -0.099000216 0.055000007 -0.15400004 0.15400004 -0.15400004 c 0.010999978 0 0.04399997 0.010999918 0.07699996 0.032999992 Z "/>
        </symbol>
        <symbol id="gF475BC26362428EA66BD81F6B46D87A9" overflow="visible">
            <path d="M 0 0m 2.9589999 7.3259997 c -0.45099998 -0.4619999 -1.1109998 -0.69299984 -1.9799999 -0.69299984 v -0.4289999 c 0.572 0 1.045 0.08799982 1.4080001 0.26399994 v -5.566 c 0 -0.19800001 -0.04400015 -0.32999998 -0.14300013 -0.385 c -0.09899998 -0.055000007 -0.37399995 -0.08800003 -0.814 -0.08800003 h -0.385 v -0.429 c 0.27499998 0.022 0.8690001 0.033 1.782 0.033 c 0.9130001 0 1.5070002 -0.011 1.7820003 -0.033 v 0.429 h -0.38500023 c -0.45099998 0 -0.7260001 0.033000022 -0.8139999 0.08800003 c -0.08800006 0.055000007 -0.14300013 0.18699998 -0.14300013 0.385 v 6.094 c 0 0.26399994 -0.022000074 0.32999992 -0.3080001 0.32999992 Z "/>
        </symbol>
        <symbol id="gB56977B8E514832554387B9D3A881F8D" overflow="visible">
            <path d="M 0 0m 4.18 -3.817 c 0.11000013 0 0.16499996 0.05499983 0.16499996 0.16499996 c 0 0.055000067 -0.021999836 0.09899998 -0.05499983 0.13199997 c -0.671 0.51699996 -1.21 1.3640001 -1.6169999 2.552 c -0.352 1.023 -0.5280001 2.035 -0.5280001 3.014 v 1.408 c 0 0.9790001 0.17600012 1.9910002 0.5280001 3.014 c 0.40699983 1.1880002 0.94599986 2.0350003 1.6169999 2.5519996 c 0.032999992 0.032999992 0.05499983 0.07700062 0.05499983 0.13200092 c 0 0.10999966 -0.05499983 0.16499996 -0.16499996 0.16499996 c -0.021999836 0 -0.05499983 -0.011000633 -0.08799982 -0.032999992 c -0.77 -0.5830002 -1.408 -1.4630003 -1.914 -2.6400003 c -0.495 -1.1110001 -0.737 -2.178 -0.737 -3.19 v -1.408 c 0 -1.012 0.24199998 -2.079 0.737 -3.19 c 0.50600004 -1.177 1.144 -2.057 1.914 -2.6399999 c 0.032999992 -0.022000074 0.065999985 -0.032999992 0.08799982 -0.032999992 Z "/>
        </symbol>
        <symbol id="gBFDA36F678F5ECDCD006E5B314ABCC57" overflow="visible">
            <path d="M 0 0m 2.3331 5.1128 c -0.3311 -0.32340002 -0.8239001 -0.48510027 -1.4938002 -0.48510027 v -0.33879995 c 0.4543 0 0.81619996 0.069300175 1.0934 0.20020008 v -3.8346 c 0 -0.10010004 -0.0077000856 -0.16170001 -0.030800104 -0.1925 c -0.03849995 -0.08470002 -0.2694999 -0.13090003 -0.69299996 -0.13090003 h -0.3157 v -0.3311 l 1.3706 0.0308 l 1.3783002 -0.0308 v 0.3311 h -0.31570005 c -0.42350006 0 -0.6545 0.046200007 -0.70070004 0.13090003 c -0.015399933 0.030799985 -0.0230999 0.092399955 -0.0230999 0.1925 v 4.2118998 c 0 0.20790005 -0.030800104 0.24640036 -0.26950002 0.24640036 Z "/>
        </symbol>
        <symbol id="g15F53FE9723A43E35F3A8E323C9F7CDE" overflow="visible">
            <path d="M 0 0m 0.9163 3.2648 c 0.24639994 0 0.43119997 0.18479991 0.43119997 0.43120003 c 0 0.27719998 -0.14629996 0.42350006 -0.43119997 0.43120003 c 0.16940004 0.36189985 0.5544 0.6545 1.0548999 0.6545 c 0.6775999 0 1.1242001 -0.50820017 1.1242001 -1.1858001 c 0 -0.36960006 -0.13090014 -0.7238002 -0.40040016 -1.0703001 c -0.1308999 -0.17709994 -0.23099995 -0.30029988 -0.30029988 -0.36960006 l -1.8249 -1.8094999 c -0.10010001 -0.092400014 -0.08470002 -0.1155 -0.08470002 -0.3465 h 3.1724 l 0.23869991 1.4476 h -0.32340002 c -0.053900003 -0.4081 -0.11549997 -0.64680004 -0.18479991 -0.7007 c -0.03850007 -0.023100019 -0.27719998 -0.03850001 -0.7314999 -0.03850001 h -1.3090001 c 0.5159 0.45429993 0.9933001 0.86239994 1.4476 1.2243 c 0.34649992 0.2694999 0.59290004 0.50820005 0.7469001 0.71609986 c 0.23099995 0.30030012 0.34649992 0.6160002 0.34649992 0.94710016 c 0 0.47739983 -0.18479991 0.8547001 -0.56209993 1.1318998 c -0.3311 0.25409985 -0.7469001 0.38500023 -1.2397001 0.38500023 c -0.42349994 0 -0.7853999 -0.12319994 -1.1011 -0.3696003 c -0.3311 -0.26949978 -0.50049996 -0.60829973 -0.50049996 -1.0240998 c 0 -0.26180005 0.19250003 -0.45429993 0.4312 -0.45429993 Z "/>
        </symbol>
        <symbol id="g5EA0335BB1FC13D8C881BBB4FD206558" overflow="visible">
            <path d="M 0 0m 0.946 -3.784 c 0.77 0.58299994 1.4080001 1.4629998 1.9139999 2.6399999 c 0.49500012 1.1110001 0.737 2.178 0.737 3.19 v 1.408 c 0 1.0120001 -0.24199986 2.079 -0.737 3.19 c -0.5059998 1.177 -1.1439999 2.0570002 -1.9139999 2.6400003 c -0.032999992 0.02199936 -0.065999985 0.032999992 -0.088 0.032999992 c -0.109999955 0 -0.16499996 -0.055000305 -0.16499996 -0.16499996 c 0 -0.055000305 0.021999955 -0.09900093 0.055000007 -0.13200092 c 0.671 -0.51699924 1.2099999 -1.3639994 1.617 -2.5519996 c 0.352 -1.0229998 0.5279999 -2.0349998 0.5279999 -3.014 v -1.408 c 0 -0.979 -0.17599988 -1.991 -0.5279999 -3.014 c -0.40700006 -1.188 -0.946 -2.035 -1.617 -2.552 c -0.033000052 -0.032999992 -0.055000007 -0.0769999 -0.055000007 -0.13199997 c 0 -0.11000013 0.055000007 -0.16499996 0.16499996 -0.16499996 c 0.022000015 0 0.055000007 0.010999918 0.088 0.032999992 Z "/>
        </symbol>
        <symbol id="g4A52173026735FA7E7F04E6F5D055AF3" overflow="visible">
            <path d="M 0 0m 7.678 2.97 h -6.798 c -0.176 0 -0.264 -0.07700014 -0.264 -0.22000003 c 0 -0.14300013 0.088 -0.22000003 0.264 -0.22000003 h 6.798 c 0.17600012 0 0.26399994 0.0769999 0.26399994 0.22000003 c 0 0.13199997 -0.13199997 0.22000003 -0.26399994 0.22000003 Z "/>
        </symbol>
        <symbol id="gDC0FFCC189DD288E475665D8B3B63DE4" overflow="visible">
            <path d="M 0 0m 5.797 4.103 c 0 0.50600004 -0.4949999 0.7589998 -1.0450001 0.7589998 c -0.47300005 0 -0.8469999 -0.25299978 -1.1329999 -0.7589998 c -0.23099995 0.50600004 -0.61599994 0.7589998 -1.177 0.7589998 c -0.5389999 0 -0.979 -0.25299978 -1.331 -0.74800014 c -0.29699993 -0.4289999 -0.45099998 -0.7479999 -0.45099998 -0.9569998 c 0 -0.09899998 0.055000007 -0.15400004 0.16500002 -0.15400004 c 0.09900004 0 0.16500002 0.055000067 0.18699998 0.15400004 c 0.20899999 0.638 0.671 1.3859997 1.4080001 1.3859997 c 0.36299992 0 0.5389998 -0.23099995 0.5389998 -0.6819997 c 0 -0.23100019 -0.19799995 -1.089 -0.58299994 -2.5630002 c -0.18700004 -0.737 -0.51699996 -1.1 -0.9899999 -1.1 c -0.15400004 0 -0.29700005 0.033000007 -0.41800004 0.088000014 c 0.28599995 0.109999985 0.42899996 0.30799997 0.42899996 0.594 c 0 0.286 -0.143 0.42900002 -0.43999994 0.42900002 c -0.36300004 0 -0.638 -0.30799997 -0.638 -0.671 c 0 -0.50600004 0.51699996 -0.759 1.056 -0.759 c 0.462 0 0.83599997 0.253 1.1329999 0.759 c 0.20900011 -0.50600004 0.605 -0.759 1.177 -0.759 c 0.5279999 0 0.96799994 0.253 1.3200002 0.74799997 c 0.29699993 0.42900002 0.45099974 0.748 0.45099974 0.957 c 0 0.09899998 -0.05499983 0.15400004 -0.16499996 0.15400004 c -0.09899998 0 -0.1539998 -0.055000067 -0.1869998 -0.15400004 c -0.18700027 -0.627 -0.68200016 -1.386 -1.3970001 -1.386 c -0.36300015 0 -0.54999995 0.21999998 -0.54999995 0.671 c 0 0.14299995 0.05499983 0.45099992 0.17599988 0.9459999 l 0.37400007 1.485 c 0.20899987 0.82500005 0.54999995 1.2429998 1.0340002 1.2429998 c 0.1539998 0 0.29699993 -0.032999992 0.41799974 -0.08799982 c -0.29699993 -0.09899998 -0.44000006 -0.29699993 -0.44000006 -0.59399986 c 0 -0.286 0.15400028 -0.42900014 0.4510002 -0.42900014 c 0.35199976 0 0.62699986 0.319 0.62699986 0.67100024 Z "/>
        </symbol>
        <symbol id="gF099AF9A1B1D276B96FC12E616EA7407" overflow="visible">
            <path d="M 0 0m 7.678 4.037 h -6.798 c -0.176 0 -0.264 -0.0880003 -0.264 -0.25300026 c 0 -0.16499996 0.088 -0.25300002 0.264 -0.25300002 h 6.798 c 0.17600012 0 0.26399994 0.08800006 0.26399994 0.25300002 c 0 0.13199997 -0.12099981 0.25300026 -0.26399994 0.25300026 Z m 0 -2.0680003 h -6.798 c -0.176 0 -0.264 -0.08799994 -0.264 -0.25300002 c 0 -0.16499996 0.088 -0.25300002 0.264 -0.25300002 h 6.798 c 0.17600012 0 0.26399994 0.08800006 0.26399994 0.25300002 c 0 0.143 -0.12099981 0.25300002 -0.26399994 0.25300002 Z "/>
        </symbol>
        <symbol id="g188D2B54D9E91AF385779383AA474A93" overflow="visible">
            <path d="M 0 0m 1.793 4.862 c -0.495 0 -0.88 -0.2750001 -1.155 -0.8249998 c -0.20900002 -0.42900014 -0.319 -0.7260003 -0.319 -0.8910003 c 0 -0.09899998 0.055000007 -0.1539998 0.176 -0.1539998 c 0.15399998 0 0.16499996 0.065999985 0.20899999 0.23099995 c 0.25300002 0.86899996 0.605 1.309 1.056 1.309 c 0.143 0 0.22000003 -0.09899998 0.22000003 -0.29699993 c 0 -0.17600012 -0.055000067 -0.42900014 -0.176 -0.74800014 c -0.41799998 -1.1329999 -0.627 -1.892 -0.627 -2.299 c 0 -0.83599997 0.51699996 -1.331 1.3639998 -1.331 c 0.36300015 0 0.704 0.132 1.0120001 0.396 c -0.385 -1.452 -0.99 -2.178 -1.8149999 -2.178 c -0.37400007 0 -0.6270001 0.12099993 -0.75900006 0.36299992 c 0.44000006 0.022000074 0.65999997 0.23100007 0.65999997 0.62700003 c 0 0.27500004 -0.14299989 0.41799998 -0.43999994 0.41799998 c -0.407 0 -0.649 -0.34099996 -0.649 -0.74799997 c 0 -0.605 0.55 -0.9899999 1.188 -0.9899999 c 1.265 0 2.2990003 1.1659999 2.574 2.244 l 1.0340004 4.158 c 0.032999992 0.12100029 0.043999672 0.20900011 0.043999672 0.26399994 c 0 0.22000027 -0.12099981 0.3300004 -0.35199976 0.3300004 c -0.17600012 0 -0.31900024 -0.0880003 -0.41800022 -0.25300026 c -0.065999985 -0.23099995 -0.12099981 -0.4289999 -0.1539998 -0.59399986 l -0.704 -2.8270001 c -0.11000013 -0.39600003 -0.6930001 -0.89100003 -1.1880002 -0.89100003 c -0.41799998 0 -0.62699986 0.275 -0.62699986 0.83599997 c 0 0.462 0.18700004 1.166 0.54999995 2.112 c 0.14299989 0.385 0.22000003 0.6489999 0.22000003 0.803 c 0 0.53900003 -0.385 0.93499994 -0.924 0.93499994 Z "/>
        </symbol>
        <symbol id="gB137087D3CF9A3E3730DD9887591EE87" overflow="visible">
            <path d="M 0 0m 7.678 3.014 h -3.1350002 v 3.1350002 c 0 0.17599964 -0.08799982 0.26399994 -0.26399994 0.26399994 c -0.17599964 0 -0.26399994 -0.0880003 -0.26399994 -0.26399994 v -3.1350002 h -3.1349998 c -0.176 0 -0.264 -0.08800006 -0.264 -0.26399994 c 0 -0.17600012 0.088 -0.26399994 0.264 -0.26399994 h 3.1349998 v -3.135 c 0 -0.176 0.0880003 -0.264 0.26399994 -0.264 c 0.17600012 0 0.26399994 0.088 0.26399994 0.264 v 3.135 h 3.1350002 c 0.17600012 0 0.26399994 0.08799982 0.26399994 0.26399994 c 0 0.14299989 -0.12099981 0.26399994 -0.26399994 0.26399994 Z "/>
        </symbol>
    </defs>
</svg>
